<?xml version="1.0" standalone="no"?>
<!DOCTYPE svg PUBLIC "-//W3C//DTD SVG 1.1//EN" "http://www.w3.org/Graphics/SVG/1.1/DTD/svg11.dtd">
<svg width="302mm" height="183mm" viewBox="-1 -182 302 183" xmlns="http://www.w3.org/2000/svg" version="1.1">
<title>OpenSCAD Model</title>
<path d="
M -1,1 L 301,1 L 301,-182 L -1,-182 z
M -0.0999994,0.0999994 L -0.0999994,-19 L 300,-19 L 300,0.0999994 z
M -0.0999994,-54 L -0.0999994,-73.1 L 300,-73.1 L 300,-54 z
M -0.0999994,-110 L -0.0999994,-129.1 L 300,-129.1 L 300,-110 z
M -0.0999994,-160.9 L -0.0999994,-180 L 300,-180 L 300,-160.9 z
M 51.5617,-26.5019 L 51.5617,-31.4981 L 56.3133,-33.042 L 59.25,-29 L 56.3133,-24.958 z
M 51.5617,-153.502 L 51.5617,-158.498 L 56.3133,-160.042 L 59.25,-156 L 56.3133,-151.958 z
M 91.5617,-26.5019 L 91.5617,-31.4981 L 96.3133,-33.042 L 99.25,-29 L 96.3133,-24.958 z
M 91.5617,-153.502 L 91.5617,-158.498 L 96.3133,-160.042 L 99.25,-156 L 96.3133,-151.958 z
M 131.562,-91.5019 L 131.562,-96.4981 L 136.313,-98.042 L 139.25,-94 L 136.313,-89.958 z
M 171.562,-91.5019 L 171.562,-96.4981 L 176.313,-98.042 L 179.25,-94 L 176.313,-89.958 z
M 201.562,-26.5019 L 201.562,-31.4981 L 206.313,-33.042 L 209.25,-29 L 206.313,-24.958 z
M 201.562,-153.502 L 201.562,-158.498 L 206.313,-160.042 L 209.25,-156 L 206.313,-151.958 z
M 241.562,-26.5019 L 241.562,-31.4981 L 246.313,-33.042 L 249.25,-29 L 246.313,-24.958 z
M 241.562,-153.502 L 241.562,-158.498 L 246.313,-160.042 L 249.25,-156 L 246.313,-151.958 z
" stroke="black" fill="lightgray" stroke-width="0.5"/>
</svg>
