<?xml version="1.0" standalone="no"?>
<!DOCTYPE svg PUBLIC "-//W3C//DTD SVG 1.1//EN" "http://www.w3.org/Graphics/SVG/1.1/DTD/svg11.dtd">
<svg width="300mm" height="180mm" viewBox="0 -180 300 180" xmlns="http://www.w3.org/2000/svg" version="1.1">
<title>OpenSCAD Model</title>
<path d="
M 0,-0 L 300,-0 L 300,-180 L 0,-180 z
M 52.25,-29 L 52.2554,-29.1727 L 52.2717,-29.3447 L 52.2987,-29.5153 L 52.3364,-29.6839 L 52.3846,-29.8498
 L 52.4431,-30.0123 L 52.5117,-30.1709 L 52.5902,-30.3248 L 52.6781,-30.4735 L 52.7752,-30.6164 L 52.8811,-30.7529
 L 52.9953,-30.8825 L 53.1175,-31.0047 L 53.2471,-31.1189 L 53.3836,-31.2248 L 53.5265,-31.3219 L 53.6752,-31.4098
 L 53.8291,-31.4883 L 53.9877,-31.5569 L 54.1502,-31.6154 L 54.3161,-31.6636 L 54.4847,-31.7013 L 54.6553,-31.7283
 L 54.8273,-31.7446 L 55,-31.75 L 55.1727,-31.7446 L 55.3447,-31.7283 L 55.5153,-31.7013 L 55.6839,-31.6636
 L 55.8498,-31.6154 L 56.0123,-31.5569 L 56.1709,-31.4883 L 56.3248,-31.4098 L 56.4735,-31.3219 L 56.6164,-31.2248
 L 56.7529,-31.1189 L 56.8825,-31.0047 L 57.0047,-30.8825 L 57.1189,-30.7529 L 57.2248,-30.6164 L 57.3219,-30.4735
 L 57.4098,-30.3248 L 57.4883,-30.1709 L 57.5569,-30.0123 L 57.6154,-29.8498 L 57.6636,-29.6839 L 57.7013,-29.5153
 L 57.7283,-29.3447 L 57.7446,-29.1727 L 57.75,-29 L 57.7446,-28.8273 L 57.7283,-28.6553 L 57.7013,-28.4847
 L 57.6636,-28.3161 L 57.6154,-28.1502 L 57.5569,-27.9877 L 57.4883,-27.8291 L 57.4098,-27.6752 L 57.3219,-27.5265
 L 57.2248,-27.3836 L 57.1189,-27.2471 L 57.0047,-27.1175 L 56.8825,-26.9953 L 56.7529,-26.8811 L 56.6164,-26.7752
 L 56.4735,-26.6781 L 56.3248,-26.5902 L 56.1709,-26.5117 L 56.0123,-26.4431 L 55.8498,-26.3846 L 55.6839,-26.3364
 L 55.5153,-26.2987 L 55.3447,-26.2717 L 55.1727,-26.2554 L 55,-26.25 L 54.8273,-26.2554 L 54.6553,-26.2717
 L 54.4847,-26.2987 L 54.3161,-26.3364 L 54.1502,-26.3846 L 53.9877,-26.4431 L 53.8291,-26.5117 L 53.6752,-26.5902
 L 53.5265,-26.6781 L 53.3836,-26.7752 L 53.2471,-26.8811 L 53.1175,-26.9953 L 52.9953,-27.1175 L 52.8811,-27.2471
 L 52.7752,-27.3836 L 52.6781,-27.5265 L 52.5902,-27.6752 L 52.5117,-27.8291 L 52.4431,-27.9877 L 52.3846,-28.1502
 L 52.3364,-28.3161 L 52.2987,-28.4847 L 52.2717,-28.6553 L 52.2554,-28.8273 z
M 52.25,-156 L 52.2554,-156.173 L 52.2717,-156.345 L 52.2987,-156.515 L 52.3364,-156.684 L 52.3846,-156.85
 L 52.4431,-157.012 L 52.5117,-157.171 L 52.5902,-157.325 L 52.6781,-157.474 L 52.7752,-157.616 L 52.8811,-157.753
 L 52.9953,-157.883 L 53.1175,-158.005 L 53.2471,-158.119 L 53.3836,-158.225 L 53.5265,-158.322 L 53.6752,-158.41
 L 53.8291,-158.488 L 53.9877,-158.557 L 54.1502,-158.615 L 54.3161,-158.664 L 54.4847,-158.701 L 54.6553,-158.728
 L 54.8273,-158.745 L 55,-158.75 L 55.1727,-158.745 L 55.3447,-158.728 L 55.5153,-158.701 L 55.6839,-158.664
 L 55.8498,-158.615 L 56.0123,-158.557 L 56.1709,-158.488 L 56.3248,-158.41 L 56.4735,-158.322 L 56.6164,-158.225
 L 56.7529,-158.119 L 56.8825,-158.005 L 57.0047,-157.883 L 57.1189,-157.753 L 57.2248,-157.616 L 57.3219,-157.474
 L 57.4098,-157.325 L 57.4883,-157.171 L 57.5569,-157.012 L 57.6154,-156.85 L 57.6636,-156.684 L 57.7013,-156.515
 L 57.7283,-156.345 L 57.7446,-156.173 L 57.75,-156 L 57.7446,-155.827 L 57.7283,-155.655 L 57.7013,-155.485
 L 57.6636,-155.316 L 57.6154,-155.15 L 57.5569,-154.988 L 57.4883,-154.829 L 57.4098,-154.675 L 57.3219,-154.526
 L 57.2248,-154.384 L 57.1189,-154.247 L 57.0047,-154.117 L 56.8825,-153.995 L 56.7529,-153.881 L 56.6164,-153.775
 L 56.4735,-153.678 L 56.3248,-153.59 L 56.1709,-153.512 L 56.0123,-153.443 L 55.8498,-153.385 L 55.6839,-153.336
 L 55.5153,-153.299 L 55.3447,-153.272 L 55.1727,-153.255 L 55,-153.25 L 54.8273,-153.255 L 54.6553,-153.272
 L 54.4847,-153.299 L 54.3161,-153.336 L 54.1502,-153.385 L 53.9877,-153.443 L 53.8291,-153.512 L 53.6752,-153.59
 L 53.5265,-153.678 L 53.3836,-153.775 L 53.2471,-153.881 L 53.1175,-153.995 L 52.9953,-154.117 L 52.8811,-154.247
 L 52.7752,-154.384 L 52.6781,-154.526 L 52.5902,-154.675 L 52.5117,-154.829 L 52.4431,-154.988 L 52.3846,-155.15
 L 52.3364,-155.316 L 52.2987,-155.485 L 52.2717,-155.655 L 52.2554,-155.827 z
M 92.25,-29 L 92.2554,-29.1727 L 92.2717,-29.3447 L 92.2987,-29.5153 L 92.3364,-29.6839 L 92.3846,-29.8498
 L 92.4431,-30.0123 L 92.5117,-30.1709 L 92.5902,-30.3248 L 92.6781,-30.4735 L 92.7752,-30.6164 L 92.8811,-30.7529
 L 92.9953,-30.8825 L 93.1175,-31.0047 L 93.2471,-31.1189 L 93.3836,-31.2248 L 93.5265,-31.3219 L 93.6752,-31.4098
 L 93.8291,-31.4883 L 93.9877,-31.5569 L 94.1502,-31.6154 L 94.3161,-31.6636 L 94.4847,-31.7013 L 94.6553,-31.7283
 L 94.8273,-31.7446 L 95,-31.75 L 95.1727,-31.7446 L 95.3447,-31.7283 L 95.5153,-31.7013 L 95.6839,-31.6636
 L 95.8498,-31.6154 L 96.0123,-31.5569 L 96.1709,-31.4883 L 96.3248,-31.4098 L 96.4735,-31.3219 L 96.6164,-31.2248
 L 96.7529,-31.1189 L 96.8825,-31.0047 L 97.0047,-30.8825 L 97.1189,-30.7529 L 97.2248,-30.6164 L 97.3219,-30.4735
 L 97.4098,-30.3248 L 97.4883,-30.1709 L 97.5569,-30.0123 L 97.6154,-29.8498 L 97.6636,-29.6839 L 97.7013,-29.5153
 L 97.7283,-29.3447 L 97.7446,-29.1727 L 97.75,-29 L 97.7446,-28.8273 L 97.7283,-28.6553 L 97.7013,-28.4847
 L 97.6636,-28.3161 L 97.6154,-28.1502 L 97.5569,-27.9877 L 97.4883,-27.8291 L 97.4098,-27.6752 L 97.3219,-27.5265
 L 97.2248,-27.3836 L 97.1189,-27.2471 L 97.0047,-27.1175 L 96.8825,-26.9953 L 96.7529,-26.8811 L 96.6164,-26.7752
 L 96.4735,-26.6781 L 96.3248,-26.5902 L 96.1709,-26.5117 L 96.0123,-26.4431 L 95.8498,-26.3846 L 95.6839,-26.3364
 L 95.5153,-26.2987 L 95.3447,-26.2717 L 95.1727,-26.2554 L 95,-26.25 L 94.8273,-26.2554 L 94.6553,-26.2717
 L 94.4847,-26.2987 L 94.3161,-26.3364 L 94.1502,-26.3846 L 93.9877,-26.4431 L 93.8291,-26.5117 L 93.6752,-26.5902
 L 93.5265,-26.6781 L 93.3836,-26.7752 L 93.2471,-26.8811 L 93.1175,-26.9953 L 92.9953,-27.1175 L 92.8811,-27.2471
 L 92.7752,-27.3836 L 92.6781,-27.5265 L 92.5902,-27.6752 L 92.5117,-27.8291 L 92.4431,-27.9877 L 92.3846,-28.1502
 L 92.3364,-28.3161 L 92.2987,-28.4847 L 92.2717,-28.6553 L 92.2554,-28.8273 z
M 92.25,-156 L 92.2554,-156.173 L 92.2717,-156.345 L 92.2987,-156.515 L 92.3364,-156.684 L 92.3846,-156.85
 L 92.4431,-157.012 L 92.5117,-157.171 L 92.5902,-157.325 L 92.6781,-157.474 L 92.7752,-157.616 L 92.8811,-157.753
 L 92.9953,-157.883 L 93.1175,-158.005 L 93.2471,-158.119 L 93.3836,-158.225 L 93.5265,-158.322 L 93.6752,-158.41
 L 93.8291,-158.488 L 93.9877,-158.557 L 94.1502,-158.615 L 94.3161,-158.664 L 94.4847,-158.701 L 94.6553,-158.728
 L 94.8273,-158.745 L 95,-158.75 L 95.1727,-158.745 L 95.3447,-158.728 L 95.5153,-158.701 L 95.6839,-158.664
 L 95.8498,-158.615 L 96.0123,-158.557 L 96.1709,-158.488 L 96.3248,-158.41 L 96.4735,-158.322 L 96.6164,-158.225
 L 96.7529,-158.119 L 96.8825,-158.005 L 97.0047,-157.883 L 97.1189,-157.753 L 97.2248,-157.616 L 97.3219,-157.474
 L 97.4098,-157.325 L 97.4883,-157.171 L 97.5569,-157.012 L 97.6154,-156.85 L 97.6636,-156.684 L 97.7013,-156.515
 L 97.7283,-156.345 L 97.7446,-156.173 L 97.75,-156 L 97.7446,-155.827 L 97.7283,-155.655 L 97.7013,-155.485
 L 97.6636,-155.316 L 97.6154,-155.15 L 97.5569,-154.988 L 97.4883,-154.829 L 97.4098,-154.675 L 97.3219,-154.526
 L 97.2248,-154.384 L 97.1189,-154.247 L 97.0047,-154.117 L 96.8825,-153.995 L 96.7529,-153.881 L 96.6164,-153.775
 L 96.4735,-153.678 L 96.3248,-153.59 L 96.1709,-153.512 L 96.0123,-153.443 L 95.8498,-153.385 L 95.6839,-153.336
 L 95.5153,-153.299 L 95.3447,-153.272 L 95.1727,-153.255 L 95,-153.25 L 94.8273,-153.255 L 94.6553,-153.272
 L 94.4847,-153.299 L 94.3161,-153.336 L 94.1502,-153.385 L 93.9877,-153.443 L 93.8291,-153.512 L 93.6752,-153.59
 L 93.5265,-153.678 L 93.3836,-153.775 L 93.2471,-153.881 L 93.1175,-153.995 L 92.9953,-154.117 L 92.8811,-154.247
 L 92.7752,-154.384 L 92.6781,-154.526 L 92.5902,-154.675 L 92.5117,-154.829 L 92.4431,-154.988 L 92.3846,-155.15
 L 92.3364,-155.316 L 92.2987,-155.485 L 92.2717,-155.655 L 92.2554,-155.827 z
M 132.25,-94 L 132.255,-94.1727 L 132.272,-94.3447 L 132.299,-94.5153 L 132.336,-94.6839 L 132.385,-94.8498
 L 132.443,-95.0123 L 132.512,-95.1709 L 132.59,-95.3248 L 132.678,-95.4735 L 132.775,-95.6164 L 132.881,-95.7529
 L 132.995,-95.8825 L 133.117,-96.0047 L 133.247,-96.1189 L 133.384,-96.2248 L 133.526,-96.3219 L 133.675,-96.4098
 L 133.829,-96.4883 L 133.988,-96.5569 L 134.15,-96.6154 L 134.316,-96.6636 L 134.485,-96.7013 L 134.655,-96.7283
 L 134.827,-96.7446 L 135,-96.75 L 135.173,-96.7446 L 135.345,-96.7283 L 135.515,-96.7013 L 135.684,-96.6636
 L 135.85,-96.6154 L 136.012,-96.5569 L 136.171,-96.4883 L 136.325,-96.4098 L 136.474,-96.3219 L 136.616,-96.2248
 L 136.753,-96.1189 L 136.883,-96.0047 L 137.005,-95.8825 L 137.119,-95.7529 L 137.225,-95.6164 L 137.322,-95.4735
 L 137.41,-95.3248 L 137.488,-95.1709 L 137.557,-95.0123 L 137.615,-94.8498 L 137.664,-94.6839 L 137.701,-94.5153
 L 137.728,-94.3447 L 137.745,-94.1727 L 137.75,-94 L 137.745,-93.8273 L 137.728,-93.6553 L 137.701,-93.4847
 L 137.664,-93.3161 L 137.615,-93.1502 L 137.557,-92.9877 L 137.488,-92.8291 L 137.41,-92.6752 L 137.322,-92.5265
 L 137.225,-92.3836 L 137.119,-92.2471 L 137.005,-92.1175 L 136.883,-91.9953 L 136.753,-91.8811 L 136.616,-91.7752
 L 136.474,-91.6781 L 136.325,-91.5902 L 136.171,-91.5117 L 136.012,-91.4431 L 135.85,-91.3846 L 135.684,-91.3364
 L 135.515,-91.2987 L 135.345,-91.2717 L 135.173,-91.2554 L 135,-91.25 L 134.827,-91.2554 L 134.655,-91.2717
 L 134.485,-91.2987 L 134.316,-91.3364 L 134.15,-91.3846 L 133.988,-91.4431 L 133.829,-91.5117 L 133.675,-91.5902
 L 133.526,-91.6781 L 133.384,-91.7752 L 133.247,-91.8811 L 133.117,-91.9953 L 132.995,-92.1175 L 132.881,-92.2471
 L 132.775,-92.3836 L 132.678,-92.5265 L 132.59,-92.6752 L 132.512,-92.8291 L 132.443,-92.9877 L 132.385,-93.1502
 L 132.336,-93.3161 L 132.299,-93.4847 L 132.272,-93.6553 L 132.255,-93.8273 z
M 172.25,-94 L 172.255,-94.1727 L 172.272,-94.3447 L 172.299,-94.5153 L 172.336,-94.6839 L 172.385,-94.8498
 L 172.443,-95.0123 L 172.512,-95.1709 L 172.59,-95.3248 L 172.678,-95.4735 L 172.775,-95.6164 L 172.881,-95.7529
 L 172.995,-95.8825 L 173.117,-96.0047 L 173.247,-96.1189 L 173.384,-96.2248 L 173.526,-96.3219 L 173.675,-96.4098
 L 173.829,-96.4883 L 173.988,-96.5569 L 174.15,-96.6154 L 174.316,-96.6636 L 174.485,-96.7013 L 174.655,-96.7283
 L 174.827,-96.7446 L 175,-96.75 L 175.173,-96.7446 L 175.345,-96.7283 L 175.515,-96.7013 L 175.684,-96.6636
 L 175.85,-96.6154 L 176.012,-96.5569 L 176.171,-96.4883 L 176.325,-96.4098 L 176.474,-96.3219 L 176.616,-96.2248
 L 176.753,-96.1189 L 176.883,-96.0047 L 177.005,-95.8825 L 177.119,-95.7529 L 177.225,-95.6164 L 177.322,-95.4735
 L 177.41,-95.3248 L 177.488,-95.1709 L 177.557,-95.0123 L 177.615,-94.8498 L 177.664,-94.6839 L 177.701,-94.5153
 L 177.728,-94.3447 L 177.745,-94.1727 L 177.75,-94 L 177.745,-93.8273 L 177.728,-93.6553 L 177.701,-93.4847
 L 177.664,-93.3161 L 177.615,-93.1502 L 177.557,-92.9877 L 177.488,-92.8291 L 177.41,-92.6752 L 177.322,-92.5265
 L 177.225,-92.3836 L 177.119,-92.2471 L 177.005,-92.1175 L 176.883,-91.9953 L 176.753,-91.8811 L 176.616,-91.7752
 L 176.474,-91.6781 L 176.325,-91.5902 L 176.171,-91.5117 L 176.012,-91.4431 L 175.85,-91.3846 L 175.684,-91.3364
 L 175.515,-91.2987 L 175.345,-91.2717 L 175.173,-91.2554 L 175,-91.25 L 174.827,-91.2554 L 174.655,-91.2717
 L 174.485,-91.2987 L 174.316,-91.3364 L 174.15,-91.3846 L 173.988,-91.4431 L 173.829,-91.5117 L 173.675,-91.5902
 L 173.526,-91.6781 L 173.384,-91.7752 L 173.247,-91.8811 L 173.117,-91.9953 L 172.995,-92.1175 L 172.881,-92.2471
 L 172.775,-92.3836 L 172.678,-92.5265 L 172.59,-92.6752 L 172.512,-92.8291 L 172.443,-92.9877 L 172.385,-93.1502
 L 172.336,-93.3161 L 172.299,-93.4847 L 172.272,-93.6553 L 172.255,-93.8273 z
M 202.25,-29 L 202.255,-29.1727 L 202.272,-29.3447 L 202.299,-29.5153 L 202.336,-29.6839 L 202.385,-29.8498
 L 202.443,-30.0123 L 202.512,-30.1709 L 202.59,-30.3248 L 202.678,-30.4735 L 202.775,-30.6164 L 202.881,-30.7529
 L 202.995,-30.8825 L 203.117,-31.0047 L 203.247,-31.1189 L 203.384,-31.2248 L 203.526,-31.3219 L 203.675,-31.4098
 L 203.829,-31.4883 L 203.988,-31.5569 L 204.15,-31.6154 L 204.316,-31.6636 L 204.485,-31.7013 L 204.655,-31.7283
 L 204.827,-31.7446 L 205,-31.75 L 205.173,-31.7446 L 205.345,-31.7283 L 205.515,-31.7013 L 205.684,-31.6636
 L 205.85,-31.6154 L 206.012,-31.5569 L 206.171,-31.4883 L 206.325,-31.4098 L 206.474,-31.3219 L 206.616,-31.2248
 L 206.753,-31.1189 L 206.883,-31.0047 L 207.005,-30.8825 L 207.119,-30.7529 L 207.225,-30.6164 L 207.322,-30.4735
 L 207.41,-30.3248 L 207.488,-30.1709 L 207.557,-30.0123 L 207.615,-29.8498 L 207.664,-29.6839 L 207.701,-29.5153
 L 207.728,-29.3447 L 207.745,-29.1727 L 207.75,-29 L 207.745,-28.8273 L 207.728,-28.6553 L 207.701,-28.4847
 L 207.664,-28.3161 L 207.615,-28.1502 L 207.557,-27.9877 L 207.488,-27.8291 L 207.41,-27.6752 L 207.322,-27.5265
 L 207.225,-27.3836 L 207.119,-27.2471 L 207.005,-27.1175 L 206.883,-26.9953 L 206.753,-26.8811 L 206.616,-26.7752
 L 206.474,-26.6781 L 206.325,-26.5902 L 206.171,-26.5117 L 206.012,-26.4431 L 205.85,-26.3846 L 205.684,-26.3364
 L 205.515,-26.2987 L 205.345,-26.2717 L 205.173,-26.2554 L 205,-26.25 L 204.827,-26.2554 L 204.655,-26.2717
 L 204.485,-26.2987 L 204.316,-26.3364 L 204.15,-26.3846 L 203.988,-26.4431 L 203.829,-26.5117 L 203.675,-26.5902
 L 203.526,-26.6781 L 203.384,-26.7752 L 203.247,-26.8811 L 203.117,-26.9953 L 202.995,-27.1175 L 202.881,-27.2471
 L 202.775,-27.3836 L 202.678,-27.5265 L 202.59,-27.6752 L 202.512,-27.8291 L 202.443,-27.9877 L 202.385,-28.1502
 L 202.336,-28.3161 L 202.299,-28.4847 L 202.272,-28.6553 L 202.255,-28.8273 z
M 202.25,-156 L 202.255,-156.173 L 202.272,-156.345 L 202.299,-156.515 L 202.336,-156.684 L 202.385,-156.85
 L 202.443,-157.012 L 202.512,-157.171 L 202.59,-157.325 L 202.678,-157.474 L 202.775,-157.616 L 202.881,-157.753
 L 202.995,-157.883 L 203.117,-158.005 L 203.247,-158.119 L 203.384,-158.225 L 203.526,-158.322 L 203.675,-158.41
 L 203.829,-158.488 L 203.988,-158.557 L 204.15,-158.615 L 204.316,-158.664 L 204.485,-158.701 L 204.655,-158.728
 L 204.827,-158.745 L 205,-158.75 L 205.173,-158.745 L 205.345,-158.728 L 205.515,-158.701 L 205.684,-158.664
 L 205.85,-158.615 L 206.012,-158.557 L 206.171,-158.488 L 206.325,-158.41 L 206.474,-158.322 L 206.616,-158.225
 L 206.753,-158.119 L 206.883,-158.005 L 207.005,-157.883 L 207.119,-157.753 L 207.225,-157.616 L 207.322,-157.474
 L 207.41,-157.325 L 207.488,-157.171 L 207.557,-157.012 L 207.615,-156.85 L 207.664,-156.684 L 207.701,-156.515
 L 207.728,-156.345 L 207.745,-156.173 L 207.75,-156 L 207.745,-155.827 L 207.728,-155.655 L 207.701,-155.485
 L 207.664,-155.316 L 207.615,-155.15 L 207.557,-154.988 L 207.488,-154.829 L 207.41,-154.675 L 207.322,-154.526
 L 207.225,-154.384 L 207.119,-154.247 L 207.005,-154.117 L 206.883,-153.995 L 206.753,-153.881 L 206.616,-153.775
 L 206.474,-153.678 L 206.325,-153.59 L 206.171,-153.512 L 206.012,-153.443 L 205.85,-153.385 L 205.684,-153.336
 L 205.515,-153.299 L 205.345,-153.272 L 205.173,-153.255 L 205,-153.25 L 204.827,-153.255 L 204.655,-153.272
 L 204.485,-153.299 L 204.316,-153.336 L 204.15,-153.385 L 203.988,-153.443 L 203.829,-153.512 L 203.675,-153.59
 L 203.526,-153.678 L 203.384,-153.775 L 203.247,-153.881 L 203.117,-153.995 L 202.995,-154.117 L 202.881,-154.247
 L 202.775,-154.384 L 202.678,-154.526 L 202.59,-154.675 L 202.512,-154.829 L 202.443,-154.988 L 202.385,-155.15
 L 202.336,-155.316 L 202.299,-155.485 L 202.272,-155.655 L 202.255,-155.827 z
M 242.25,-29 L 242.255,-29.1727 L 242.272,-29.3447 L 242.299,-29.5153 L 242.336,-29.6839 L 242.385,-29.8498
 L 242.443,-30.0123 L 242.512,-30.1709 L 242.59,-30.3248 L 242.678,-30.4735 L 242.775,-30.6164 L 242.881,-30.7529
 L 242.995,-30.8825 L 243.117,-31.0047 L 243.247,-31.1189 L 243.384,-31.2248 L 243.526,-31.3219 L 243.675,-31.4098
 L 243.829,-31.4883 L 243.988,-31.5569 L 244.15,-31.6154 L 244.316,-31.6636 L 244.485,-31.7013 L 244.655,-31.7283
 L 244.827,-31.7446 L 245,-31.75 L 245.173,-31.7446 L 245.345,-31.7283 L 245.515,-31.7013 L 245.684,-31.6636
 L 245.85,-31.6154 L 246.012,-31.5569 L 246.171,-31.4883 L 246.325,-31.4098 L 246.474,-31.3219 L 246.616,-31.2248
 L 246.753,-31.1189 L 246.883,-31.0047 L 247.005,-30.8825 L 247.119,-30.7529 L 247.225,-30.6164 L 247.322,-30.4735
 L 247.41,-30.3248 L 247.488,-30.1709 L 247.557,-30.0123 L 247.615,-29.8498 L 247.664,-29.6839 L 247.701,-29.5153
 L 247.728,-29.3447 L 247.745,-29.1727 L 247.75,-29 L 247.745,-28.8273 L 247.728,-28.6553 L 247.701,-28.4847
 L 247.664,-28.3161 L 247.615,-28.1502 L 247.557,-27.9877 L 247.488,-27.8291 L 247.41,-27.6752 L 247.322,-27.5265
 L 247.225,-27.3836 L 247.119,-27.2471 L 247.005,-27.1175 L 246.883,-26.9953 L 246.753,-26.8811 L 246.616,-26.7752
 L 246.474,-26.6781 L 246.325,-26.5902 L 246.171,-26.5117 L 246.012,-26.4431 L 245.85,-26.3846 L 245.684,-26.3364
 L 245.515,-26.2987 L 245.345,-26.2717 L 245.173,-26.2554 L 245,-26.25 L 244.827,-26.2554 L 244.655,-26.2717
 L 244.485,-26.2987 L 244.316,-26.3364 L 244.15,-26.3846 L 243.988,-26.4431 L 243.829,-26.5117 L 243.675,-26.5902
 L 243.526,-26.6781 L 243.384,-26.7752 L 243.247,-26.8811 L 243.117,-26.9953 L 242.995,-27.1175 L 242.881,-27.2471
 L 242.775,-27.3836 L 242.678,-27.5265 L 242.59,-27.6752 L 242.512,-27.8291 L 242.443,-27.9877 L 242.385,-28.1502
 L 242.336,-28.3161 L 242.299,-28.4847 L 242.272,-28.6553 L 242.255,-28.8273 z
M 242.25,-156 L 242.255,-156.173 L 242.272,-156.345 L 242.299,-156.515 L 242.336,-156.684 L 242.385,-156.85
 L 242.443,-157.012 L 242.512,-157.171 L 242.59,-157.325 L 242.678,-157.474 L 242.775,-157.616 L 242.881,-157.753
 L 242.995,-157.883 L 243.117,-158.005 L 243.247,-158.119 L 243.384,-158.225 L 243.526,-158.322 L 243.675,-158.41
 L 243.829,-158.488 L 243.988,-158.557 L 244.15,-158.615 L 244.316,-158.664 L 244.485,-158.701 L 244.655,-158.728
 L 244.827,-158.745 L 245,-158.75 L 245.173,-158.745 L 245.345,-158.728 L 245.515,-158.701 L 245.684,-158.664
 L 245.85,-158.615 L 246.012,-158.557 L 246.171,-158.488 L 246.325,-158.41 L 246.474,-158.322 L 246.616,-158.225
 L 246.753,-158.119 L 246.883,-158.005 L 247.005,-157.883 L 247.119,-157.753 L 247.225,-157.616 L 247.322,-157.474
 L 247.41,-157.325 L 247.488,-157.171 L 247.557,-157.012 L 247.615,-156.85 L 247.664,-156.684 L 247.701,-156.515
 L 247.728,-156.345 L 247.745,-156.173 L 247.75,-156 L 247.745,-155.827 L 247.728,-155.655 L 247.701,-155.485
 L 247.664,-155.316 L 247.615,-155.15 L 247.557,-154.988 L 247.488,-154.829 L 247.41,-154.675 L 247.322,-154.526
 L 247.225,-154.384 L 247.119,-154.247 L 247.005,-154.117 L 246.883,-153.995 L 246.753,-153.881 L 246.616,-153.775
 L 246.474,-153.678 L 246.325,-153.59 L 246.171,-153.512 L 246.012,-153.443 L 245.85,-153.385 L 245.684,-153.336
 L 245.515,-153.299 L 245.345,-153.272 L 245.173,-153.255 L 245,-153.25 L 244.827,-153.255 L 244.655,-153.272
 L 244.485,-153.299 L 244.316,-153.336 L 244.15,-153.385 L 243.988,-153.443 L 243.829,-153.512 L 243.675,-153.59
 L 243.526,-153.678 L 243.384,-153.775 L 243.247,-153.881 L 243.117,-153.995 L 242.995,-154.117 L 242.881,-154.247
 L 242.775,-154.384 L 242.678,-154.526 L 242.59,-154.675 L 242.512,-154.829 L 242.443,-154.988 L 242.385,-155.15
 L 242.336,-155.316 L 242.299,-155.485 L 242.272,-155.655 L 242.255,-155.827 z
" stroke="black" fill="lightgray" stroke-width="0.5"/>
</svg>
